# xmcd
#
# Track frame offsets:
#	183
#	16553
#	31338
#	46940
#	57903
#	70523
#	86758
#	100750
#	117410
#	133913
#	149585
#	163703
#	177728
#	194310
#
# Disc length: 2786 seconds
#
# Revision: 0
# Processed by: cddbd v1.4PL0 Copyright (c) Steve Scherf et al.
# Submitted via: dBpowerAMP V4.0
#
DISCID=c20ae00e
DTITLE=Henk Wijngaard - Muziek is mijn wereld
DYEAR=1993
DGENRE=Dutch
TTITLE0=Voor 'n teken van leven
TTITLE1=Alles is compleet
TTITLE2=De waddenzee
TTITLE3=Ode aan de uitvinder van het wiel
TTITLE4=M'n dafje
TTITLE5=Beun de beunhaas
TTITLE6=Eenmaal dan komt voor mijn de dag
TTITLE7=De zevende Hemel
TTITLE8=Rosie
TTITLE9=We gaan door dik en dun
TTITLE10=Dan verging m'n wereld
TTITLE11=Als 'n donderslag bij heldere hemel
TTITLE12=Schilder van god
TTITLE13=De zon schijnt weer in mijn cabine
EXTD=
EXTT0=
EXTT1=
EXTT2=
EXTT3=
EXTT4=
EXTT5=
EXTT6=
EXTT7=
EXTT8=
EXTT9=
EXTT10=
EXTT11=
EXTT12=
EXTT13=
PLAYORDER=
